<svg width="32" height="33" viewBox="0 0 32 33" fill="none" xmlns="http://www.w3.org/2000/svg">
<path d="M16 11.3305C16 8.49784 18.3125 6.14162 21.0625 6.18025C22.0256 6.1917 22.9649 6.48941 23.7676 7.0376C24.5704 7.58578 25.2023 8.36111 25.5875 9.27038H30L25.9625 13.4292C25.7019 17.6067 23.9066 21.5253 20.9415 24.3881C17.9764 27.251 14.0641 28.8433 10 28.8412C6 28.8412 5 27.2961 5 27.2961C5 27.2961 9 25.7511 11 22.6609C11 22.6609 3 18.5408 5 7.21029C5 7.21029 10 12.3605 16 13.3905V11.3305Z" stroke="black" stroke-width="2" stroke-linecap="round" stroke-linejoin="round"/>
</svg>
